<svg xmlns="http://www.w3.org/2000/svg" viewBox="0 0 500 500"><g id="freepik--background-complete--inject-24"><path d="M438,373.56c4.38-2.26,9.53-2.55,14.39-1.75,2.61.43,5.33,1.21,7.11,3.18s2.11,5.41.08,7.09a6.78,6.78,0,0,1-4.49,1.14c-3.8,0-8-.71-11.06,1.58-1.74,1.3-2.89,3.47-5,4.11a4.9,4.9,0,0,1-5.39-2.39,8.43,8.43,0,0,1-.61-6.19A9.45,9.45,0,0,1,438,373.56Z" style="fill:#ebebeb"></path><path d="M428,354.2c2.68,3.82,7.88,2.56,10.29.22s3.43-5.71,4.36-8.94c2.12-7.37,4.26-15.1,2.68-22.6a12.61,12.61,0,0,0-2.88-6.15,6.59,6.59,0,0,0-6.22-2.07c-2.62.7-4.25,3.26-5.43,5.71a53.83,53.83,0,0,0-5.33,23.12c0,3.73.43,7.63,2.53,10.71" style="fill:#ebebeb"></path><path d="M420.65,359.68c2.91-3.44,3.46-8.48,2.16-12.8s-4.21-8-7.58-11a41.08,41.08,0,0,0-13.58-8,14.41,14.41,0,0,0-6.1-1,6.39,6.39,0,0,0-5.13,3.1c-1.43,2.72-.06,6,1.43,8.72a103.43,103.43,0,0,0,8.91,13.58c2.68,3.45,5.74,6.85,9.81,8.41S418.88,362,421,359.2" style="fill:#ebebeb"></path><path d="M427.82,411.87a8.35,8.35,0,0,0,.24-1.74c.12-1.26.28-2.85.46-4.74a66.67,66.67,0,0,1,1.07-6.95,53.66,53.66,0,0,1,2.53-8.21,30.24,30.24,0,0,1,4.19-7.43,15.66,15.66,0,0,1,5.3-4.4,14.72,14.72,0,0,1,4.46-1.39,8,8,0,0,0,1.73-.25,8,8,0,0,0-1.76,0,13.55,13.55,0,0,0-4.65,1.21,15.53,15.53,0,0,0-5.59,4.45,29.36,29.36,0,0,0-4.35,7.57,50.64,50.64,0,0,0-2.51,8.34,58.8,58.8,0,0,0-.92,7.05c-.15,2-.21,3.64-.24,4.77A8.26,8.26,0,0,0,427.82,411.87Z" style="fill:#e0e0e0"></path><path d="M428.15,408.22a3.57,3.57,0,0,0,0-.8v-2.31c0-2,0-4.89.1-8.47.18-7.15.79-14.84,2-25.69,1.13-10.2,2.64-22.07,4.23-29.79.34-1.76.69-3.34,1-4.72s.58-2.58.83-3.55l.54-2.24a3.3,3.3,0,0,0,.14-.8,4.07,4.07,0,0,0-.28.76c-.18.58-.4,1.31-.67,2.21s-.6,2.14-.95,3.53-.74,2.95-1.11,4.7a261.33,261.33,0,0,0-4.45,27.64c-1.19,10.88-1.73,20.77-1.78,27.94,0,3.59,0,6.49.13,8.49,0,.94.1,1.7.14,2.3A3,3,0,0,0,428.15,408.22Z" style="fill:#e0e0e0"></path><path d="M428.19,389.13a15.9,15.9,0,0,0,0-2.41c-.09-1.54-.31-3.78-.74-6.52a86.25,86.25,0,0,0-2.12-9.5,78.09,78.09,0,0,0-4-11.25,59.75,59.75,0,0,0-11.67-18.18,28.17,28.17,0,0,0-2.75-2.55c-.42-.36-.79-.71-1.17-1l-1.06-.74a16.47,16.47,0,0,0-2-1.3c-.12.16,2.87,1.92,6.64,5.93a63.21,63.21,0,0,1,11.38,18.11,87.62,87.62,0,0,1,4,11.15,96.12,96.12,0,0,1,2.26,9.41c.5,2.71.78,4.92,1,6.46A15.46,15.46,0,0,0,428.19,389.13Z" style="fill:#e0e0e0"></path><polygon points="409.74 422.81 411.65 449.02 445.32 449.02 447.24 422.81 409.74 422.81" style="fill:#e0e0e0"></polygon><rect x="406.49" y="412.48" width="44.76" height="10.33" style="fill:#e0e0e0"></rect><polygon points="406.49 448.01 406.49 450.88 408.59 450.88 450.51 450.88 450.51 448.01 406.49 448.01" style="fill:#ebebeb"></polygon><polygon points="410.65 455.92 408.59 450.88 448.91 450.88 446.5 455.92 410.65 455.92" style="fill:#e0e0e0"></polygon><path d="M446.61,431.37s-.05.09-.16.25l-.5.66c-.48.61-1.13,1.46-2,2.51l-.09.11-.08-.11L439,428.12h.28l-4.75,6.72-.15.21-.16-.2-5.63-6.69h.32c-.09.13-.2.26-.31.39l-5,6.31-.16.21-.16-.22c-1.71-2.41-3.3-4.67-4.74-6.71h.27l-5.84,6.66-.11.12-.08-.14-1.83-3.07-.47-.82a1.56,1.56,0,0,1-.14-.29s.07.08.2.26l.51.79c.47.73,1.12,1.74,1.93,3l-.19,0,5.76-6.74.14-.17.13.18,4.79,6.69h-.32l5-6.32.31-.39.16-.2.16.2,5.61,6.71h-.31l4.79-6.68.14-.2.14.2,4.71,6.73h-.17l2-2.45.55-.63A1.32,1.32,0,0,1,446.61,431.37Z" style="fill:#f5f5f5"></path><path d="M447.7,422.64c0,.11-8.43.21-18.84.21s-18.84-.1-18.84-.21,8.44-.21,18.84-.21S447.7,422.52,447.7,422.64Z" style="fill:#f5f5f5"></path><path d="M449.4,451.16c0,.12-9.16.21-20.47.21s-20.48-.09-20.48-.21,9.17-.21,20.48-.21S449.4,451,449.4,451.16Z" style="fill:#f5f5f5"></path><rect x="396.45" y="71.73" width="68.19" height="71.08" style="fill:#e0e0e0"></rect><rect x="391.83" y="71.73" width="68.19" height="71.08" style="fill:#fafafa"></rect><path d="M460,142.84H391.81V71.71H460Zm-68.19-.05H460v-71H391.85Z" style="fill:#e0e0e0"></path><rect x="401" y="81.29" width="49.86" height="51.97" style="fill:#fafafa"></rect><path d="M401,133.6a8.29,8.29,0,0,1-1.23,1.43c-.8.84-1.92,2-3.17,3.22s-2.41,2.33-3.26,3.12a8.33,8.33,0,0,1-1.44,1.2,7.91,7.91,0,0,1,1.22-1.43c.8-.84,1.92-2,3.18-3.22s2.41-2.34,3.26-3.12A8.33,8.33,0,0,1,401,133.6Z" style="fill:#e0e0e0"></path><path d="M450.86,133.48a8.16,8.16,0,0,1,1.43,1.23c.84.79,2,1.91,3.21,3.17s2.34,2.4,3.12,3.25a8.33,8.33,0,0,1,1.2,1.44,7,7,0,0,1-1.43-1.22c-.84-.8-2-1.92-3.22-3.18s-2.34-2.41-3.12-3.26A7.58,7.58,0,0,1,450.86,133.48Z" style="fill:#e0e0e0"></path><path d="M450.72,81.42A8.16,8.16,0,0,1,452,80c.8-.84,1.92-2,3.17-3.21s2.41-2.34,3.26-3.12a7.91,7.91,0,0,1,1.44-1.2,7.76,7.76,0,0,1-1.23,1.43c-.79.84-1.91,2-3.17,3.22s-2.42,2.34-3.27,3.12A7.58,7.58,0,0,1,450.72,81.42Z" style="fill:#e0e0e0"></path><path d="M400.86,81.55a7.76,7.76,0,0,1-1.43-1.23c-.84-.79-2-1.91-3.21-3.17s-2.34-2.41-3.12-3.26a7.91,7.91,0,0,1-1.2-1.44,8.37,8.37,0,0,1,1.42,1.23c.84.79,2,1.92,3.22,3.17s2.35,2.42,3.13,3.27A7.58,7.58,0,0,1,400.86,81.55Z" style="fill:#e0e0e0"></path><path d="M450.72,133.26s0-.09,0-.25,0-.42,0-.73c0-.65,0-1.59,0-2.81,0-2.46,0-6-.05-10.59,0-9.1-.06-22.07-.1-37.59l.19.19-49.72,0h0l.22-.22c0,19.07,0,36.92,0,52l-.19-.19,36,.1,10.11.05,2.68,0h0l-2.64,0-10.07,0-36.12.1h-.19v-.19c0-15,0-32.9,0-52v-.23H401l49.72,0h.19v.2c0,15.57-.07,28.58-.1,37.72,0,4.53,0,8.09-.05,10.54,0,1.21,0,2.13,0,2.77,0,.3,0,.54,0,.71A2.07,2.07,0,0,1,450.72,133.26Z" style="fill:#e0e0e0"></path><rect x="417.61" y="98.95" width="16.64" height="16.64" style="fill:#ebebeb"></rect><rect x="396.45" y="159.67" width="68.19" height="71.08" style="fill:#e0e0e0"></rect><rect x="391.83" y="159.67" width="68.19" height="71.08" style="fill:#fafafa"></rect><path d="M460,230.78H391.81V159.65H460Zm-68.19-.05H460v-71H391.85Z" style="fill:#e0e0e0"></path><rect x="401" y="169.23" width="49.86" height="51.97" style="fill:#fafafa"></rect><path d="M401,221.55a8.76,8.76,0,0,1-1.23,1.43c-.8.84-1.92,2-3.17,3.21s-2.41,2.34-3.26,3.12a8.33,8.33,0,0,1-1.44,1.2,7.91,7.91,0,0,1,1.22-1.43c.8-.84,1.92-2,3.18-3.22s2.41-2.34,3.26-3.12A7.42,7.42,0,0,1,401,221.55Z" style="fill:#e0e0e0"></path><path d="M450.86,221.42a8.16,8.16,0,0,1,1.43,1.23c.84.79,2,1.91,3.21,3.17s2.34,2.4,3.12,3.25a7.74,7.74,0,0,1,1.2,1.45,7.76,7.76,0,0,1-1.43-1.23c-.84-.79-2-1.92-3.22-3.17s-2.34-2.42-3.12-3.27A7.58,7.58,0,0,1,450.86,221.42Z" style="fill:#e0e0e0"></path><path d="M450.72,169.37a7.59,7.59,0,0,1,1.23-1.44c.8-.84,1.92-2,3.17-3.21s2.41-2.33,3.26-3.12a7.91,7.91,0,0,1,1.44-1.2,7.76,7.76,0,0,1-1.23,1.43c-.79.84-1.91,2-3.17,3.22s-2.42,2.34-3.27,3.12A8.54,8.54,0,0,1,450.72,169.37Z" style="fill:#e0e0e0"></path><path d="M400.86,169.49a7.76,7.76,0,0,1-1.43-1.23c-.84-.79-2-1.91-3.21-3.17s-2.34-2.4-3.12-3.25a8.33,8.33,0,0,1-1.2-1.44,7.46,7.46,0,0,1,1.42,1.22c.84.79,2,1.92,3.22,3.17s2.35,2.42,3.13,3.27A7.58,7.58,0,0,1,400.86,169.49Z" style="fill:#e0e0e0"></path><path d="M450.72,221.2s0-.09,0-.25,0-.42,0-.73c0-.65,0-1.59,0-2.8,0-2.47,0-6-.05-10.6,0-9.1-.06-22.07-.1-37.59l.19.19-49.72,0h0l.22-.22c0,19.07,0,36.92,0,52L401,221l36,.1,10.11,0,2.68,0h0l-2.64,0-10.07,0-36.12.1h-.19v-.19c0-15,0-32.9,0-52V169H401l49.72,0h.19v.2c0,15.57-.07,28.58-.1,37.72,0,4.53,0,8.09-.05,10.55,0,1.2,0,2.12,0,2.76,0,.3,0,.54,0,.71A1.85,1.85,0,0,1,450.72,221.2Z" style="fill:#e0e0e0"></path><rect x="417.61" y="186.89" width="16.64" height="16.64" style="fill:#ebebeb"></rect><path d="M249,120l.59,1a6.79,6.79,0,0,0,2.78,2.56l1,.5-1,.6a6.67,6.67,0,0,0-2.56,2.78l-.51,1-.59-1a6.73,6.73,0,0,0-2.78-2.56l-1-.51,1-.59a6.73,6.73,0,0,0,2.56-2.78Z" style="fill:#e0e0e0"></path><path d="M354.39,92.41l.59,1A6.67,6.67,0,0,0,357.76,96l1,.51-1,.59a6.73,6.73,0,0,0-2.56,2.78l-.51,1-.59-1a6.79,6.79,0,0,0-2.78-2.56l-1-.51,1-.59a6.73,6.73,0,0,0,2.56-2.78Z" style="fill:#e0e0e0"></path><path d="M300.69,59l.3.49a3.36,3.36,0,0,0,1.39,1.28l.52.26-.49.29a3.35,3.35,0,0,0-1.29,1.4l-.25.51-.3-.49a3.3,3.3,0,0,0-1.39-1.28l-.52-.26.5-.3a3.37,3.37,0,0,0,1.28-1.39Z" style="fill:#e0e0e0"></path><path d="M341.49,92.78l.29.49a3.39,3.39,0,0,0,1.4,1.28l.51.26-.49.29a3.39,3.39,0,0,0-1.28,1.4l-.26.51-.29-.49a3.39,3.39,0,0,0-1.4-1.28l-.51-.26.49-.29a3.39,3.39,0,0,0,1.28-1.4Z" style="fill:#e0e0e0"></path><path d="M302.81,128.84l.3.49a3.37,3.37,0,0,0,1.39,1.28l.52.26-.5.29a3.39,3.39,0,0,0-1.28,1.4l-.26.51-.29-.49a3.45,3.45,0,0,0-1.39-1.29l-.52-.25.49-.3a3.39,3.39,0,0,0,1.29-1.39Z" style="fill:#e0e0e0"></path><path d="M349.94,158.79c.36-2.63-3.36-4.8-6.16-5a16,16,0,0,1-4-.34c-2.74-1-3.83-4.49-6.5-5.62-2-.84-4.3-.09-6.24.88s-3.85,2.2-6,2.34c-1.88.12-3.93-.58-5.57.34-1.23.69-1.87,2.1-3,2.94a7.26,7.26,0,0,1-3.92,1.06,11,11,0,0,0-4.05.66,3.18,3.18,0,0,0-2,3.24Z" style="fill:#ebebeb"></path><path d="M264.69,63.46c.5-3.62-4.61-6.6-8.44-6.9-1.84-.15-3.74.13-5.47-.48-3.76-1.31-5.26-6.16-8.92-7.71-2.74-1.15-5.9-.12-8.56,1.21s-5.28,3-8.25,3.21c-2.58.17-5.38-.79-7.64.47-1.69.94-2.57,2.88-4.12,4a9.89,9.89,0,0,1-5.38,1.46,15.25,15.25,0,0,0-5.55.9c-1.71.79-3.13,2.6-2.78,4.45Z" style="fill:#f5f5f5"></path><rect x="42.78" y="53.44" width="115.73" height="191.56" style="fill:#e0e0e0"></rect><rect x="38.93" y="53.44" width="115.73" height="191.56" style="fill:#ebebeb"></rect><rect x="43.86" y="57.32" width="105.87" height="183.79" style="fill:#fafafa"></rect><rect x="64.02" y="81.2" width="65.1" height="136.03" style="fill:#ebebeb"></rect><path d="M64,169.1c-.15-12.71,11.27-25.12,23.86-26.89,6-.85,12.37.35,18-2,10-4.11,13.19-17.4,23.26-21.35l.46,98.32H64Z" style="fill:#e0e0e0"></path></g><g id="freepik--Character--inject-24"><polygon points="193.52 277.52 214.83 273.41 255.71 282.79 276.43 287.11 276.73 315.42 230.51 323.93 199.32 314.69 187.53 297.34 193.52 277.52" style="fill:#ffbe9d"></polygon><path d="M178.38,280.34l20.11-4.74s14.22,44,49.31,42.07c28.6-1.55,28.63-30.56,28.63-30.56l20.91,3.69s8.77,53.09-.84,90.33c-8,31-15.1,73.48-15.1,73.48H142.49l35.89-174.27Z" style="fill:#FF725E"></path><path d="M382.15,416.37S324.86,316,314.55,303.12c-11.29-14.1-20.3-12.47-20.3-12.47l-6.06,67.61,48.71,69.11,11.61,4.19Z" style="fill:#FF725E"></path><path d="M180.78,279.78s-32.56,2.6-44.24,56c-5.28,24.13-12,52.41-13.88,71.41-1.4,13.79,7.11,28.13,20.86,29.89l17.26,3.2a18.12,18.12,0,0,0,20.92-13.56l5.83-24.14L172,397.36l3.59-71.91Z" style="fill:#FF725E"></path><path d="M300,328.12a3.54,3.54,0,0,1,.15.74c.09.54.19,1.26.33,2.15.07.47.14,1,.23,1.56s.12,1.19.18,1.86c.14,1.33.3,2.85.37,4.54a109.44,109.44,0,0,1,.08,11.87,142.45,142.45,0,0,1-1.44,14.46c-.75,5.1-1.69,9.92-2.64,14.28s-1.9,8.27-2.71,11.55-1.52,5.91-2,7.73c-.24.87-.43,1.57-.58,2.09a5.64,5.64,0,0,1-.23.72,4.07,4.07,0,0,1,.13-.74c.12-.54.29-1.24.49-2.12L294.2,391c.77-3.29,1.69-7.2,2.6-11.56s1.85-9.17,2.6-14.26,1.26-10,1.47-14.41.23-8.46,0-11.82c0-1.68-.18-3.2-.29-4.54-.05-.66-.1-1.28-.14-1.86s-.13-1.08-.18-1.56c-.1-.89-.17-1.61-.23-2.15A5.4,5.4,0,0,1,300,328.12Z" style="fill:#263238"></path><path d="M189.05,405.16a2.78,2.78,0,0,1-.17-.44c-.1-.33-.24-.75-.41-1.29l-.64-2.07a6.17,6.17,0,0,0-1.16-2.59,8.27,8.27,0,0,0-3-1.84,24.08,24.08,0,0,0-4.06-1.14,60.19,60.19,0,0,0-10-1h-.27l0-.26,2.94-19.17c1.89-12.07,3.61-23,4.86-31,.65-3.92,1.17-7.11,1.54-9.37.18-1.07.33-1.92.44-2.55,0-.26.09-.48.13-.66a.66.66,0,0,1,.06-.22.58.58,0,0,1,0,.23c0,.18,0,.4-.08.67-.08.63-.2,1.48-.34,2.56-.33,2.27-.8,5.47-1.37,9.4-1.22,8-2.88,18.91-4.72,31-1.08,6.9-2.09,13.43-3,19.16l-.23-.27a59.53,59.53,0,0,1,10.11,1.13,24,24,0,0,1,4.11,1.21,8.32,8.32,0,0,1,3.09,2,3.72,3.72,0,0,1,.78,1.39l.37,1.33c.23.81.42,1.51.58,2.09s.26,1,.34,1.31A2.16,2.16,0,0,1,189.05,405.16Z" style="fill:#263238"></path><path d="M144.2,413.32a5.63,5.63,0,0,1,.26-1.34,20.88,20.88,0,0,1,1.26-3.51,23.89,23.89,0,0,1,19.11-13.91,20.86,20.86,0,0,1,3.72-.12,6.1,6.1,0,0,1,1.36.17,44.54,44.54,0,0,0-5,.31,24.65,24.65,0,0,0-18.83,13.7A47.32,47.32,0,0,0,144.2,413.32Z" style="fill:#263238"></path><path d="M151.73,386.74a2.47,2.47,0,0,1,.78-.07,16.53,16.53,0,0,1,2.15.1,24.51,24.51,0,0,1,6.87,1.72,25.06,25.06,0,0,1,6.1,3.61,16.11,16.11,0,0,1,1.59,1.44c.35.37.54.58.51.61s-.88-.7-2.32-1.76a28.82,28.82,0,0,0-12.8-5.26C152.84,386.87,151.73,386.83,151.73,386.74Z" style="fill:#263238"></path><path d="M185.43,317.67a8.11,8.11,0,0,1-.07-1.43c0-.92-.06-2.24-.18-3.87A63.1,63.1,0,0,0,183,299.8a64.19,64.19,0,0,0-4.69-11.86c-.76-1.45-1.4-2.61-1.87-3.39a8.08,8.08,0,0,1-.68-1.26,7.54,7.54,0,0,1,.85,1.15c.53.76,1.22,1.89,2,3.33a56,56,0,0,1,6.9,24.58c.07,1.64.06,3,0,3.89A7.24,7.24,0,0,1,185.43,317.67Z" style="fill:#263238"></path><g style="opacity:0.30000000000000004"><path d="M298.52,372.91c8.3-14.07,8.48-32.35,1.23-47a131.3,131.3,0,0,1-1.48,46.94"></path></g><g style="opacity:0.30000000000000004"><path d="M224.62,388.82c-6.3,1.85-15,2.3-21.17,0,4.81,6.83,14.08,9.3,22.12,7.08s15.46-10.27,16.08-18.6C237.76,382.56,230.93,387,224.62,388.82Z"></path></g><path d="M247.8,366.1a2.62,2.62,0,0,1-.15.56c-.12.36-.26.91-.54,1.57a32.58,32.58,0,0,1-2.71,5.49,35.21,35.21,0,0,1-5.69,7.08,34.44,34.44,0,0,1-19.79,9.5,35.29,35.29,0,0,1-9.08,0,33.69,33.69,0,0,1-6-1.31c-.7-.21-1.21-.44-1.57-.57a3.5,3.5,0,0,1-.53-.23,22,22,0,0,1,2.15.6,36.86,36.86,0,0,0,25.46-2.11,36.63,36.63,0,0,0,17.55-18.54C247.48,366.84,247.75,366.08,247.8,366.1Z" style="fill:#263238"></path><path d="M177.56,436.11s-.07.11-.25.27a6.89,6.89,0,0,1-.81.69,12.67,12.67,0,0,1-3.44,1.82,19.73,19.73,0,0,1-5.68,1,52,52,0,0,1-7-.25c-5-.43-9.44-1.16-12.65-1.73-1.61-.29-2.91-.54-3.8-.73a6.81,6.81,0,0,1-1.39-.34,8.6,8.6,0,0,1,1.42.14l3.83.56c3.22.49,7.68,1.15,12.64,1.58a56.93,56.93,0,0,0,7,.29,20.41,20.41,0,0,0,5.58-.9A17.2,17.2,0,0,0,177.56,436.11Z" style="fill:#263238"></path><path d="M290.5,173l4.11-4c5.47,2.38,8,8.73,8.93,14.63s.79,12.1,3.3,17.52c1.92,4.17,5.41,8,5,12.61-.39,4.35-4.33,7.87-4.35,12.24,0,4.21,3.5,7.44,5.54,11.12,4.13,7.45,6.81,37.93,4.65,46.18-18.17-1.57-50.35-3.51-68.53-7.69C253.94,244.29,274.11,200.09,290.5,173Z" style="fill:#263238"></path><path d="M264.81,295.87Z" style="fill:#ffbe9d"></path><path d="M298.63,200.92c1.26-21.29-14.2-40.77-35.75-43.34-22.87-2.72-43.1,13.66-45,35.94l-5.36,89.94a7.81,7.81,0,0,0,1.38,4.89c5.28,7.72,14.84,13.76,23.39,14.95,8.27,1.15,16.66-1,23.7-4.92a7.66,7.66,0,0,0,3.89-6.58l.37-20.13a.12.12,0,0,1,.13-.13,27.33,27.33,0,0,0,5.65-.16c5.32-1.3,18.89-6.52,23.45-26.44C296,238.34,297.52,219.59,298.63,200.92Z" style="fill:#ffbe9d"></path><path d="M269.05,230.33c0-.2,2.23-.42,5.84-.62.91,0,1.78-.15,2-.75a4.48,4.48,0,0,0-.44-2.68l-2.24-7c-3.1-9.92-5.28-18.05-4.88-18.16s3.25,7.82,6.35,17.74c.74,2.45,1.45,4.78,2.13,7,.28,1,.79,2.22.24,3.53a2.23,2.23,0,0,1-1.57,1.19,6.2,6.2,0,0,1-1.55.11C271.29,230.67,269.06,230.53,269.05,230.33Z" style="fill:#263238"></path><path d="M292.75,208.45c-.39.43-2.75-1.55-6.13-1.65s-5.9,1.67-6.26,1.21c-.18-.21.23-1,1.33-1.82a8.11,8.11,0,0,1,5-1.52,8,8,0,0,1,4.87,1.87C292.61,207.44,293,208.26,292.75,208.45Z" style="fill:#263238"></path><path d="M258.41,209.31c-.46.43-2.92-1.8-6.61-2.12s-6.56,1.37-6.93.87c-.18-.23.32-1,1.57-1.82A9.18,9.18,0,0,1,252,205a9,9,0,0,1,5.22,2.27C258.31,208.24,258.63,209.12,258.41,209.31Z" style="fill:#263238"></path><path d="M265.25,271.53s-13.78.15-30.26-11.17c0,0,4.26,18.18,30.15,17.61Z" style="fill:#eb996e"></path><path d="M267,238.63a6.49,6.49,0,0,0-5.58-2.73,5.84,5.84,0,0,0-4.17,1.84,3.59,3.59,0,0,0-.55,4.14c.87,1.39,2.85,1.84,4.58,1.48A13.51,13.51,0,0,0,266,241a4.16,4.16,0,0,0,1.08-1,1.17,1.17,0,0,0,.08-1.3" style="fill:#eb996e"></path><path d="M258.45,232c.58,0,.35,3.8,3.47,6.72s7.25,2.78,7.25,3.31c0,.25-1,.68-2.7.6a9.78,9.78,0,0,1-6.06-2.55,8.22,8.22,0,0,1-2.66-5.61C257.7,232.88,258.19,232,258.45,232Z" style="fill:#263238"></path><path d="M259,195.37c-.42.92-3.93.21-8.12.38s-7.64,1-8.14.15c-.21-.43.43-1.27,1.86-2.09a14.3,14.3,0,0,1,12.38-.4C258.43,194.13,259.14,194.93,259,195.37Z" style="fill:#263238"></path><path d="M293.48,196.12c-.72.8-3.57,0-7,0s-6.31.57-7-.26c-.3-.4.15-1.2,1.41-2a11.66,11.66,0,0,1,11.26.24C293.39,194.91,293.8,195.73,293.48,196.12Z" style="fill:#263238"></path><path d="M266,153.08c-1.86-3.16-5.31-4.6-9.17-5.18-15.76-2.39-33.34,7.1-42.17,20.36s-9.3,33.05-2.84,47.61l9.83-6.14c19.73-8.14,33.66-27.15,46.35-46.79C269.77,160.27,267.65,155.83,266,153.08Z" style="fill:#263238"></path><path d="M290.28,161.75c-6.59-7.5-11.38-15-25.06-9.76-2,3.83,2,8.8,5.44,11.7,5,4.26,9.29,7.13,12.55,10.18,6.58,6.15,14.06,26.84,14.71,38.13,0,.71,1.25-9.69,2-9.8.92-.14,4.63-4.68,4.12-10.88C302.28,170.13,296.87,169.24,290.28,161.75Z" style="fill:#263238"></path><path d="M256.87,147.9a5.63,5.63,0,0,1,3.07.26,13.28,13.28,0,0,1,6.22,4.09A11.15,11.15,0,0,1,267.4,154a8.94,8.94,0,0,1,.72,1.89,20.67,20.67,0,0,1,.81,3.24c.27,1.93-.19,3.1-.29,3.07s.05-1.18-.37-2.95a30.17,30.17,0,0,0-1-3.09,9.58,9.58,0,0,0-.7-1.71,11.29,11.29,0,0,0-1.16-1.62,14.7,14.7,0,0,0-5.71-4.06C258,148.16,256.85,148.06,256.87,147.9Z" style="fill:#455a64"></path><path d="M289.63,215A3,3,0,0,1,286.8,218a2.87,2.87,0,0,1-3.13-2.65,3,3,0,0,1,2.83-3.07A2.86,2.86,0,0,1,289.63,215Z" style="fill:#263238"></path><path d="M256.69,215.16a3,3,0,0,1-2.83,3.07,2.86,2.86,0,0,1-3.13-2.64,3,3,0,0,1,2.83-3.08A2.86,2.86,0,0,1,256.69,215.16Z" style="fill:#263238"></path><path d="M166.05,240.19c1.86-3.06,4-5.94,7.4-7.21s7.26-2,9.93-4.48c4.19-3.85,4-10.25,3.62-15.83s-.48-12,3.8-15.75c3.58-3.13,9.27-3.41,12.37-7,2.07-2.39,2.48-5.69,3.2-8.74,2-8.17,6.47-22.44,30.55-30.65l-21.3,80.94c1.59.45,5.39,4.07,5.6,6.52.19,2.29-.8,4.61-.82,6.91,0,2.81,3.06,4.49,5,6.57,2.46,2.65,3.22,6.47,2.84,10a70.22,70.22,0,0,1-3.85,14.11c-19.76-2-48.6-2.64-63.66-15.24C158,258.06,161.91,247,166.05,240.19Z" style="fill:#263238"></path><path d="M221.69,209.73c-.37-.2-14.92-6-15.85,9.35s14.64,13.07,14.69,12.64S221.69,209.73,221.69,209.73Z" style="fill:#ffbe9d"></path><path d="M216.21,225.64c-.07-.06-.28.17-.75.34a2.66,2.66,0,0,1-2-.07c-1.58-.7-2.79-3.35-2.7-6.11a8.91,8.91,0,0,1,1-3.77,3.12,3.12,0,0,1,2.13-1.93,1.36,1.36,0,0,1,1.53.83c.18.44.06.74.14.77s.35-.24.26-.88a1.67,1.67,0,0,0-.54-1,2,2,0,0,0-1.45-.48,3.74,3.74,0,0,0-2.93,2.2,9.11,9.11,0,0,0-1.18,4.22c-.09,3.09,1.31,6.07,3.49,6.84a2.82,2.82,0,0,0,2.46-.26C216.16,226,216.26,225.67,216.21,225.64Z" style="fill:#eb996e"></path><path d="M276.14,213.74a24.22,24.22,0,0,1,.49-3.43,14,14,0,0,1,18.16-9.91,13,13,0,0,1,3.54,1.84,12.8,12.8,0,0,1,3,2.9,13.8,13.8,0,0,1,.26,16.4,13,13,0,0,1-2.88,3,12.78,12.78,0,0,1-3.48,1.95,13.91,13.91,0,0,1-7.29.74,13.76,13.76,0,0,1-5.91-2.49,14.08,14.08,0,0,1-5.27-7.57,26,26,0,0,1-.6-3.42,2.07,2.07,0,0,0,0,.23c0,.19,0,.41,0,.68a7.14,7.14,0,0,0,.11,1.09,9.59,9.59,0,0,0,.28,1.47,14.11,14.11,0,0,0,5.25,7.82,14.22,14.22,0,0,0,13.59,1.9,14.32,14.32,0,0,0,6.61-5.1,14.28,14.28,0,0,0-.27-17,13.55,13.55,0,0,0-3.1-3A13.3,13.3,0,0,0,295,200a14.22,14.22,0,0,0-13.52,2.33,14.08,14.08,0,0,0-5,8,10.73,10.73,0,0,0-.24,1.48,7.88,7.88,0,0,0-.07,1.1c0,.27,0,.49,0,.67A1.85,1.85,0,0,0,276.14,213.74Z" style="fill:#455a64"></path><path d="M237.5,214.36a24.9,24.9,0,0,1,.48-3.43,14.09,14.09,0,0,1,5-7.74,13.83,13.83,0,0,1,5.83-2.68,14,14,0,0,1,7.31.51,13.29,13.29,0,0,1,3.54,1.84,13,13,0,0,1,3,2.9,13.81,13.81,0,0,1,.27,16.39,13.1,13.1,0,0,1-2.89,3,12.75,12.75,0,0,1-3.48,1.95,13.91,13.91,0,0,1-7.29.74,13.71,13.71,0,0,1-5.9-2.49,14.11,14.11,0,0,1-5.28-7.57,25,25,0,0,1-.59-3.42.82.82,0,0,0,0,.23c0,.18,0,.41,0,.68a5.92,5.92,0,0,0,.1,1.09,8.62,8.62,0,0,0,.29,1.47,14,14,0,0,0,5.25,7.82,14.21,14.21,0,0,0,6,2.62,14.39,14.39,0,0,0,7.53-.72,14.18,14.18,0,0,0,6.61-5.1,14.28,14.28,0,0,0-.27-17,14.31,14.31,0,0,0-6.77-4.89,14.33,14.33,0,0,0-7.55-.47,14.21,14.21,0,0,0-11,10.79,8.36,8.36,0,0,0-.24,1.48,5.62,5.62,0,0,0-.07,1.1v.67A.6.6,0,0,0,237.5,214.36Z" style="fill:#455a64"></path><path d="M265.1,213.31c.08.05.48-.6,1.41-1.35a6.82,6.82,0,0,1,8.52-.15c1,.71,1.38,1.35,1.45,1.29a3.58,3.58,0,0,0-1.22-1.58,6.69,6.69,0,0,0-9,.17A3.61,3.61,0,0,0,265.1,213.31Z" style="fill:#455a64"></path><path d="M218.17,208.75a13.79,13.79,0,0,0,2.83.58c1.77.28,4.22.54,6.92.78l6.93.62a18.89,18.89,0,0,0,2.87.22,13.92,13.92,0,0,0-2.83-.59c-1.76-.27-4.21-.53-6.92-.77l-6.92-.62A17.53,17.53,0,0,0,218.17,208.75Z" style="fill:#455a64"></path><path d="M298.46,222.39a18.12,18.12,0,0,0,3-4.83,18.38,18.38,0,0,0,.87-5.63,4,4,0,0,1,.3,1.7,11.06,11.06,0,0,1-.68,4.11,10.87,10.87,0,0,1-2.16,3.56C299.06,222.08,298.5,222.44,298.46,222.39Z" style="fill:#fff"></path><path d="M300.88,206.59c.08-.12.65.17,1,.85s.2,1.3.06,1.29-.26-.52-.53-1.07S300.79,206.7,300.88,206.59Z" style="fill:#fff"></path><path d="M263.16,219.36c-.08,0,.2-.8.43-2.09a14.28,14.28,0,0,0-1.83-9.81c-.67-1.12-1.21-1.74-1.15-1.8a5.43,5.43,0,0,1,1.46,1.6A12.72,12.72,0,0,1,264,217.34,5.46,5.46,0,0,1,263.16,219.36Z" style="fill:#fff"></path><path d="M210,231.51s-.21.3-.51.85a5.32,5.32,0,0,0-.66,2.55,4.69,4.69,0,0,0,1.42,3.48,5,5,0,0,0,4.32,1.39,5.1,5.1,0,0,0,3.58-2.81,4.75,4.75,0,0,0,.11-3.76,5.43,5.43,0,0,0-1.5-2.16c-.48-.41-.8-.58-.78-.62a2.3,2.3,0,0,1,.9.46,5.13,5.13,0,0,1,1.72,2.18,5,5,0,0,1,0,4.1,5.28,5.28,0,0,1-8.68,1.56,5,5,0,0,1-1.45-3.83,5.11,5.11,0,0,1,.85-2.64C209.67,231.71,210,231.49,210,231.51Z" style="fill:#e0e0e0"></path><path d="M294.47,243.31a4.23,4.23,0,0,0,2.66.16,5.22,5.22,0,0,0,2.45-1.51,6.34,6.34,0,0,0,1.58-3.14,5.7,5.7,0,0,0-.42-3.48,6.36,6.36,0,0,0-1.79-2.29,10.41,10.41,0,0,0-2.4-1.31,1.72,1.72,0,0,1,.75.1,5.83,5.83,0,0,1,1.88.91,6.55,6.55,0,0,1,2,2.39,6,6,0,0,1,.5,3.77,6.69,6.69,0,0,1-1.76,3.39,5.4,5.4,0,0,1-2.71,1.53,3.73,3.73,0,0,1-2.09-.11C294.65,243.53,294.45,243.33,294.47,243.31Z" style="fill:#e0e0e0"></path><path d="M239,441.87l14.83,4.39s8.18,3.51,12.16,4.42c4.94,1.13,8.31-.4,8.49-3.15s-3.66-3.1-3.66-3.1a76,76,0,0,1-9.5-4.39,16.83,16.83,0,0,1-5.3-6l5.3.73s11.15,8,15.35,10.42,5.12-1.83,5.48-3.11-12.42-14.25-12.42-14.25,12.24,7.86,14.43,9.82,5.49,2.6,6.22,1.33,2.74-1.28,0-6.7-24.67-20-24.67-20l6-1.28,6.58,2.93a16.21,16.21,0,0,0,2.74,6.26c2.37,3.52,6.58,0,6.58,0L285,406.69l-13-8.14s-13.52,1.65-15.53,2.56-4.21,4.74-4.21,4.74l-3.65,1.48c-5.67,1.64-5.48,7.31-7.31,7.49s-55.17-10.22-55.17-10.22l-4.83-1.26c-8,6.07-11.19,16.1-12.6,25,0,0-1.47,4.36,0,6.76Z" style="fill:#ffbe9d"></path><path d="M229.21,432.38a2.73,2.73,0,0,1-.05-.87,5,5,0,0,1,.09-1,7.65,7.65,0,0,1,.26-1.34,18.9,18.9,0,0,1,3.73-6.87,40.86,40.86,0,0,1,5.52-5.53,16.34,16.34,0,0,1,2.59-1.93A26.85,26.85,0,0,1,239,417a51.74,51.74,0,0,0-5.36,5.58,20.6,20.6,0,0,0-3.77,6.65C229.28,431.14,229.32,432.39,229.21,432.38Z" style="fill:#eb996e"></path><path d="M252.31,405.85s-.44.23-1.12.78a12.14,12.14,0,0,0-2.43,2.79,13.26,13.26,0,0,0-1.22,2.25,12.15,12.15,0,0,0-.58,2.86,7.2,7.2,0,0,1-1.18,3.16,12.82,12.82,0,0,0-1.77,3,8,8,0,0,0,0,5.64l.07.19-.17.11a11.12,11.12,0,0,0-4.71,6.47,18,18,0,0,0-.45,3.2,2.6,2.6,0,0,1-.1-.86,10.06,10.06,0,0,1,.26-2.41,11.1,11.1,0,0,1,4.74-6.82l-.1.3a8.56,8.56,0,0,1,0-6,12.38,12.38,0,0,1,1.84-3.07,6.76,6.76,0,0,0,1.12-3,9.41,9.41,0,0,1,2-5.23,10.91,10.91,0,0,1,2.62-2.75,4,4,0,0,1,.9-.51A1.17,1.17,0,0,1,252.31,405.85Z" style="fill:#eb996e"></path><path d="M265.15,411.83a8.21,8.21,0,0,1-7-2.48c.1-.12,1.44.91,3.37,1.58S265.15,411.68,265.15,411.83Z" style="fill:#eb996e"></path><path d="M268.57,426.6a33.09,33.09,0,0,1-5.61-2.14,35.31,35.31,0,0,1-5.4-2.62,36.12,36.12,0,0,1,5.61,2.14A35.31,35.31,0,0,1,268.57,426.6Z" style="fill:#eb996e"></path><path d="M256.54,433.9a48,48,0,0,1-5.68-2.34,7.43,7.43,0,0,1,3,.78A7.16,7.16,0,0,1,256.54,433.9Z" style="fill:#eb996e"></path><path d="M266.73,427.55A7.16,7.16,0,0,0,263.2,432c-.07,0-.13-.35,0-.91a4.67,4.67,0,0,1,2.66-3.37C266.35,427.51,266.71,427.49,266.73,427.55Z" style="fill:#eb996e"></path><path d="M272.09,419.44c.06.14-.92.64-1.58,1.76a15.31,15.31,0,0,0-.84,2.2,2.65,2.65,0,0,1,.4-2.47C270.83,419.65,272.07,419.3,272.09,419.44Z" style="fill:#eb996e"></path><path d="M270.58,404.75c-.05,0-.25-.23-.4-.71a3.77,3.77,0,0,1,0-2,3.72,3.72,0,0,1,1-1.7c.36-.35.66-.47.69-.42a10,10,0,0,0-1.15,2.25A10.91,10.91,0,0,0,270.58,404.75Z" style="fill:#eb996e"></path><path d="M378.69,409.35s-.67-13.12-14.27-15.84S327,402.35,327,402.35l-66.74,46.51,2,5.75L330,445.17l6.2,2.38,47.58-31.26,44.9-32.46-5-3.91s-12.58,8.67-20.9,12.4S382.43,402.59,378.69,409.35Z" style="fill:#f5f5f5"></path><path d="M259.23,456.51l56.48-35.09,59.71-9.59s3,4.34,8.07,3.28h0l49.1-34,.93,2.05L338.3,450.06a8.17,8.17,0,0,1-8.29-1.62Z" style="fill:#455a64"></path><path d="M375.42,411.83a2.2,2.2,0,0,1-.46.38l-1.38,1c-1.2.86-2.93,2.11-5,3.69-4.24,3.15-10,7.64-16.22,12.73s-11.81,9.82-15.81,13.27L331.78,447l-1.3,1.1a2.32,2.32,0,0,1-.47.36s.12-.16.4-.43l1.23-1.18c1.08-1,2.65-2.46,4.63-4.21,3.94-3.52,9.47-8.28,15.72-13.39s12-9.55,16.33-12.63c2.14-1.55,3.91-2.75,5.15-3.56l1.43-.92A3.31,3.31,0,0,1,375.42,411.83Z" style="fill:#263238"></path><path d="M374.81,404.53c-5.41-5.81-13.93-7.88-21.85-7.26s-15.43,3.57-22.82,6.5l-69.09,47.29.62,1.78,69.46-47s15.52-5,22.39-5.86C365,398.55,374.81,404.53,374.81,404.53Z" style="fill:#e0e0e0"></path><path d="M385.65,410.75l33.22-22.41S391.65,402.5,385.65,410.75Z" style="fill:#e0e0e0"></path><path d="M261.05,451.06a1.69,1.69,0,0,1,.28-.23l.86-.61,3.31-2.33,12.24-8.48,40.5-27.81,11.76-8,0,0h0a83.33,83.33,0,0,1,21-6.31,31.41,31.41,0,0,1,17.22,2.43,21.35,21.35,0,0,1,5.51,3.7,16.29,16.29,0,0,1,3.08,3.91,12.9,12.9,0,0,1,1.2,2.89c.07.33.13.59.18.79a2.32,2.32,0,0,1,.05.27,16.33,16.33,0,0,0-1.58-3.86,16.74,16.74,0,0,0-3.1-3.81,22.06,22.06,0,0,0-5.48-3.6,31.39,31.39,0,0,0-17-2.28A84.05,84.05,0,0,0,330.24,404l.05,0-11.76,8L278,439.71l-12.34,8.35-3.36,2.24-.89.58A1.94,1.94,0,0,1,261.05,451.06Z" style="fill:#263238"></path><path d="M321.53,415.31a2.18,2.18,0,0,1,.52-.32c.35-.19.87-.48,1.54-.82,1.35-.7,3.32-1.68,5.8-2.8a75.4,75.4,0,0,1,20.27-6.21,44.18,44.18,0,0,1,21,1.92,31.8,31.8,0,0,1,5.81,2.79c.66.38,1.13.75,1.46,1a3.25,3.25,0,0,1,.49.37s-.73-.42-2.05-1.17a35.27,35.27,0,0,0-5.83-2.61,45.24,45.24,0,0,0-20.83-1.75,80,80,0,0,0-20.19,6c-2.49,1.08-4.48,2-5.86,2.65l-1.58.73A3,3,0,0,1,321.53,415.31Z" style="fill:#263238"></path><path d="M426.9,382.42s-.14.13-.43.33l-1.29.86-4.79,3.08c-4.06,2.6-9.65,6.19-15.78,10.23S393,404.67,389,407.37l-4.73,3.18-1.3.85a2.12,2.12,0,0,1-.47.26,2.56,2.56,0,0,1,.41-.35l1.25-.93c1.08-.8,2.66-1.93,4.63-3.32,3.94-2.77,9.42-6.54,15.56-10.58s11.77-7.58,15.87-10.1c2.05-1.26,3.72-2.26,4.88-2.94l1.35-.78A2.74,2.74,0,0,1,426.9,382.42Z" style="fill:#263238"></path><path d="M396.68,418.38a23.28,23.28,0,0,1-2.57,4.62c-1.28,1.52-5.46,3.64-5.79,6.53s.35,9.67-4.17,14.83a25.38,25.38,0,0,1-10.71,7l-17.83-1.74-28.48-11.21a2.5,2.5,0,0,1-1.82-3,3.6,3.6,0,0,1,3-2.68l.68-.11s-1.64-1.34.71-3.69c2-2,6.27-.87,8.47-.14s15.1,6.12,17.41,6.95c2.05.73,3.63,1.38,3.63,1.38s-16.51-11.14-16.74-12.6c-.27-1.75-.09-2.55,1.6-3.77,2-1.45,5.28.1,8.46,1.44,2.37,1,17.48,8.46,17.48,8.46s.68-.66,0-2-5.7-7.8-6.49-9-1-1.88-.21-2.89c1.1-1.43,4-2.11,6.67.33,1.69,1.56,7.7,5.6,7.7,5.6l27.74-20.24s3.45-.09,2.25,4.72S396.68,418.38,396.68,418.38Z" style="fill:#ffbe9d"></path><path d="M376,435.25a7.07,7.07,0,0,1-5-4.2c.13-.08.94,1.16,2.32,2.31S376.07,435.1,376,435.25Z" style="fill:#eb996e"></path><path d="M378.28,423.18c0-.06.37-.17,1-.09a4.33,4.33,0,0,1,3.47,2.87c.19.58.16,1,.09,1a7.83,7.83,0,0,0-1.76-2.48A8,8,0,0,0,378.28,423.18Z" style="fill:#eb996e"></path><path d="M379.59,428.75c-.15,0-.22-1.49-.81-3.19s-1.42-2.95-1.3-3a5.59,5.59,0,0,1,1.79,2.87A5.51,5.51,0,0,1,379.59,428.75Z" style="fill:#eb996e"></path><path d="M396,416.94c0,.05-.35-.15-.71-.63a4.59,4.59,0,0,1-.5-4.45c.24-.54.51-.81.56-.77a6.54,6.54,0,0,0,.65,5.85Z" style="fill:#eb996e"></path><path d="M370.93,442.23a4.37,4.37,0,0,1-1.95,0,13,13,0,0,1-4.4-1.64,24.34,24.34,0,0,1-3.79-2.75,6.51,6.51,0,0,1-1.37-1.36,7.78,7.78,0,0,1,1.6,1.07,37.5,37.5,0,0,0,3.82,2.59,15.75,15.75,0,0,0,4.21,1.73C370.19,442.11,370.93,442.15,370.93,442.23Z" style="fill:#eb996e"></path><path d="M375.57,439.37c.14,0,.15,1-.69,1.83s-1.86.79-1.84.65.79-.34,1.47-1S375.42,439.35,375.57,439.37Z" style="fill:#eb996e"></path><path d="M382.38,434.37c.06,0,.06.27-.13.63a2.46,2.46,0,0,1-1.13,1,2.52,2.52,0,0,1-1.51.22c-.4-.08-.6-.24-.57-.3s.92.08,1.86-.39S382.24,434.32,382.38,434.37Z" style="fill:#eb996e"></path><path d="M358.36,445.72c-.05.13-6.68-2.63-14.8-6.18S328.9,433,329,432.88s6.69,2.64,14.81,6.19S358.42,445.59,358.36,445.72Z" style="fill:#eb996e"></path></g><g id="freepik--Device--inject-24"><path d="M37.72,348.11l21.7,106.53H247.77a3.76,3.76,0,0,0,3.76-3.76h0a3.76,3.76,0,0,0-3.76-3.77H209.85L189.73,348a4.1,4.1,0,0,0-4-3.29L41.8,343.17A4.12,4.12,0,0,0,37.72,348.11Z" style="fill:#e0e0e0"></path><path d="M37.72,348.11l-.06-.32a4.11,4.11,0,0,1,0-1,4.16,4.16,0,0,1,2-3.11,4,4,0,0,1,1.24-.5,7.14,7.14,0,0,1,1.48-.09l3.39,0,8.48.07,54.43.51,37.94.39,21.26.21,11.14.12,5.7.06c.49,0,.94,0,1.46,0a4.39,4.39,0,0,1,1.46.43,4.29,4.29,0,0,1,2.06,2.16,6.69,6.69,0,0,1,.4,1.45l.29,1.43c.19,1,.39,1.92.59,2.88q.58,2.89,1.18,5.82,1.19,5.85,2.41,11.85,2.44,12,5,24.53c3.39,16.7,6.93,34.07,10.56,52l-.25-.2h37.29a7.48,7.48,0,0,1,1.47.09,4,4,0,0,1,2.46,1.65,4,4,0,0,1,.67,2.89,4,4,0,0,1-2.05,2.93,4.11,4.11,0,0,1-1.78.48H147.85l-88.43,0h-.16l0-.16c-6.64-32.75-12-59.38-15.77-77.84-1.86-9.22-3.3-16.4-4.28-21.28q-.72-3.66-1.1-5.55c-.25-1.26-.36-1.9-.36-1.9s.15.64.41,1.88.66,3.12,1.16,5.54c1,4.88,2.49,12.05,4.39,21.27,3.78,18.45,9.23,45.07,15.94,77.8l-.2-.16,88.43-.05H247.9a3.64,3.64,0,0,0,1.54-.41,3.54,3.54,0,0,0,1.79-2.55,3.59,3.59,0,0,0-.58-2.53,3.55,3.55,0,0,0-2.15-1.43,7.48,7.48,0,0,0-1.36-.08h-37.5l0-.2c-3.63-17.91-7.16-35.28-10.54-52q-2.55-12.54-5-24.54l-2.4-11.85c-.39-1.95-.79-3.89-1.18-5.81-.19-1-.39-1.93-.58-2.88l-.29-1.44a7.13,7.13,0,0,0-.36-1.36,3.9,3.9,0,0,0-3.16-2.32c-.44,0-.94,0-1.41,0l-5.7-.07-11.15-.12-21.25-.25-37.95-.45-54.43-.67-8.47-.11-3.39-.05a6.32,6.32,0,0,0-1.46.08,4,4,0,0,0-1.22.47,4.11,4.11,0,0,0-2,3A6,6,0,0,0,37.72,348.11Z" style="fill:#263238"></path><circle cx="118.29" cy="396.86" r="6.22" style="fill:#fff"></circle><path d="M37.9,349s.22,0,.65,0h9.22l26.93.13,88.85.62,12.85.11,3.16,0a8.1,8.1,0,0,1,1.61.1,4.5,4.5,0,0,1,3.44,3.21c.24,1,.41,2,.62,3l4.59,23.14c2.91,14.75,5.54,28,7.74,39.19s4,20.17,5.18,26.42c.6,3.11,1.06,5.53,1.38,7.19.15.81.27,1.44.35,1.88s.1.64.1.64-.06-.21-.15-.63-.23-1.06-.4-1.87L202.54,445c-1.26-6.25-3.08-15.26-5.34-26.39s-4.9-24.43-7.85-39.17c-1.47-7.37-3-15.11-4.62-23.13-.21-1-.39-2-.61-3a4,4,0,0,0-1.7-2.3,3.87,3.87,0,0,0-1.35-.54,7.45,7.45,0,0,0-1.52-.09l-3.15,0-12.85-.1-88.85-.78-26.93-.3L40.45,349l-1.91,0Z" style="fill:#263238"></path></g></svg>